<?xml version="1.0" standalone="no"?><!DOCTYPE svg PUBLIC "-//W3C//DTD SVG 1.1//EN" "http://www.w3.org/Graphics/SVG/1.1/DTD/svg11.dtd"><svg t="1573612120929" class="icon" viewBox="0 0 1024 1024" version="1.1" xmlns="http://www.w3.org/2000/svg" p-id="3924" width="20" height="20" xmlns:xlink="http://www.w3.org/1999/xlink"><defs><style type="text/css"></style></defs><path d="M896 469.333333a42.666667 42.666667 0 1 1 85.333333 0v405.141334A106.773333 106.773333 0 0 1 874.517333 981.333333H149.482667A106.816 106.816 0 0 1 42.666667 874.474667V469.333333a42.666667 42.666667 0 1 1 85.333333 0v405.141334C128 886.4 137.6 896 149.482667 896h725.034666c11.904 0 21.482667-9.6 21.482667-21.525333V469.333333zM554.666667 188.330667v473.173333A42.453333 42.453333 0 0 1 512 704c-23.573333 0-42.666667-19.2-42.666667-42.474667V188.352l-161.834666 161.813333a42.666667 42.666667 0 0 1-60.330667-60.330666l234.666667-234.666667a42.666667 42.666667 0 0 1 60.330666 0l234.666667 234.666667a42.666667 42.666667 0 0 1-60.330667 60.330666L554.666667 188.330667z" fill="#ffffff" p-id="3925"></path></svg>